<svg xmlns="http://www.w3.org/2000/svg" xmlns:xlink="http://www.w3.org/1999/xlink" width="48" height="48" viewBox="0 0 48 48">
    <defs>
        <filter id="h7zh8y8k0a" width="130%" height="130%" x="-15%" y="-15%" filterUnits="objectBoundingBox">
            <feMorphology in="SourceAlpha" operator="dilate" radius=".5" result="shadowSpreadOuter1"/>
            <feOffset in="shadowSpreadOuter1" result="shadowOffsetOuter1"/>
            <feGaussianBlur in="shadowOffsetOuter1" result="shadowBlurOuter1" stdDeviation="1.5"/>
            <feColorMatrix in="shadowBlurOuter1" values="0 0 0 0 0.792156863 0 0 0 0 0.792156863 0 0 0 0 0.792156863 0 0 0 0.5 0"/>
        </filter>
        <circle id="bh3v402t2b" cx="20" cy="20" r="20"/>
    </defs>
    <g fill="none" fill-rule="evenodd">
        <g>
            <g>
                <g>
                    <g transform="translate(-247 -450) translate(83 454) translate(168)">
                        <use fill="#000" filter="url(#h7zh8y8k0a)" xlink:href="#bh3v402t2b"/>
                        <use fill="#FFF" xlink:href="#bh3v402t2b"/>
                    </g>
                    <path fill="#000" fill-rule="nonzero" d="M25.113 19.026c.03 3.14 2.756 4.186 2.786 4.2-.023.073-.436 1.489-1.436 2.951-.865 1.264-1.763 2.524-3.177 2.55-1.39.026-1.837-.824-3.426-.824-1.588 0-2.084.798-3.4.85-1.365.051-2.405-1.368-3.277-2.627-1.782-2.577-3.144-7.281-1.315-10.457.908-1.577 2.532-2.575 4.294-2.601 1.34-.026 2.606.902 3.426.902.818 0 2.356-1.115 3.972-.952.677.029 2.577.274 3.796 2.059-.098.061-2.266 1.323-2.243 3.949m-2.611-7.712c.725-.878 1.212-2.099 1.08-3.314-1.045.042-2.309.696-3.058 1.573-.672.776-1.26 2.02-1.101 3.21 1.164.09 2.354-.591 3.079-1.47" transform="translate(-247 -450) translate(83 454) translate(168)"/>
                </g>
            </g>
        </g>
    </g>
</svg>
