<svg xmlns="http://www.w3.org/2000/svg" xmlns:xlink="http://www.w3.org/1999/xlink" width="48" height="48" viewBox="0 0 48 48">
    <defs>
        <filter id="532pgqtx3a" width="130%" height="130%" x="-15%" y="-15%" filterUnits="objectBoundingBox">
            <feMorphology in="SourceAlpha" operator="dilate" radius=".5" result="shadowSpreadOuter1"/>
            <feOffset in="shadowSpreadOuter1" result="shadowOffsetOuter1"/>
            <feGaussianBlur in="shadowOffsetOuter1" result="shadowBlurOuter1" stdDeviation="1.5"/>
            <feColorMatrix in="shadowBlurOuter1" values="0 0 0 0 0.792156863 0 0 0 0 0.792156863 0 0 0 0 0.792156863 0 0 0 0.5 0"/>
        </filter>
        <circle id="a5d13cb0bb" cx="20" cy="20" r="20"/>
        <path id="4h7x5ewx3c" d="M0.478 0.586L17.088 0.586 17.088 32.195 0.478 32.195z"/>
    </defs>
    <g fill="none" fill-rule="evenodd">
        <g>
            <g>
                <g transform="translate(-79 -450) translate(83 454)">
                    <use fill="#000" filter="url(#532pgqtx3a)" xlink:href="#a5d13cb0bb"/>
                    <use fill="#337FFF" xlink:href="#a5d13cb0bb"/>
                </g>
                <g transform="translate(-79 -450) translate(83 454) translate(11.732 7.805)">
                    <mask id="mklme7j96d" fill="#fff">
                        <use xlink:href="#4h7x5ewx3c"/>
                    </mask>
                    <path fill="#FFF" d="M16 18.233l.86-5.678h-5.385V8.871c0-1.554.752-3.067 3.164-3.067h2.449V.971S14.865.586 12.741.586c-4.435 0-7.333 2.72-7.333 7.642v4.327H.478v5.678h4.93v13.724c.988.156 2 .238 3.033.238 1.032 0 2.045-.082 3.034-.238V18.233H16z" mask="url(#mklme7j96d)"/>
                </g>
            </g>
        </g>
    </g>
</svg>
