<svg xmlns="http://www.w3.org/2000/svg" xmlns:xlink="http://www.w3.org/1999/xlink" width="87" height="82" viewBox="0 0 87 82">
    <defs>
        <path id="ot9nigw0ja" d="M11.71.568C5.473.568.371 5.716.371 12.008V51.55c0 6.292 5.102 11.44 11.337 11.44h35.752c6.236 0 11.338-5.148 11.338-11.44V12.008c0-6.292-5.102-11.44-11.338-11.44H11.71z"/>
        <path id="obilp7ky7c" d="M0 0.061L10.037 0.061 10.037 14.873 0 14.873z"/>
        <path id="2d1o8xdo8e" d="M21.984.37c.028.322.048.646.048.975 0 6.073-4.846 10.995-10.827 10.995C5.227 12.34.378 7.418.378 1.345c0-.32.021-.634.048-.948"/>
        <path id="5iyntrlhyg" d="M21.984.37c.028.322.048.646.048.975 0 .67-.067 1.322-.18 1.958-8.983 1.33-16.899.655-21.288.028C.448 2.686.378 2.024.378 1.345c0-.32.021-.634.048-.948"/>
        <path id="rwhjoulx3j" d="M9.68 1.893S5.196 5.153.09 3.096"/>
        <path id="fprrzcx57l" d="M0.212 0.547L13.697 0.547 13.697 18.033 0.212 18.033z"/>
        <linearGradient id="k19nz4mskh" x1="50.001%" x2="50.001%" y1="174.978%" y2="9.36%">
            <stop offset="0%" stop-color="#FFF"/>
            <stop offset="100%"/>
        </linearGradient>
    </defs>
    <g fill="none" fill-rule="evenodd">
        <g>
            <g>
                <g transform="translate(-259 -50) translate(259 50) translate(7)">
                    <mask id="phjjprnyxb" fill="#fff">
                        <use xlink:href="#ot9nigw0ja"/>
                    </mask>
                    <path d="M11.71.568C5.473.568.371 5.716.371 12.008V51.55c0 6.292 5.102 11.44 11.337 11.44h35.752c6.236 0 11.338-5.148 11.338-11.44V12.008c0-6.292-5.102-11.44-11.338-11.44H11.71z" mask="url(#phjjprnyxb)"/>
                </g>
                <g>
                    <g transform="translate(-259 -50) translate(259 50) translate(0 32.17)">
                        <mask id="359iknpjtd" fill="#fff">
                            <use xlink:href="#obilp7ky7c"/>
                        </mask>
                        <path fill="#252122" d="M9.625 1.376s-6.163.394-6.797 3.078c-.635 2.684 2.857 4.42 4.206 4.657 1.348.237 2.618.237 2.856 1.026.238.79.397 4.736-1.27 4.736-1.666 0-3.57-2.447-4.046-3-.476-.552-6.19-4.735-4.127-8.603C2.511-.598 9.652.113 9.652.113s.82.868-.027 1.263" mask="url(#359iknpjtd)"/>
                    </g>
                    <path fill="#252122" d="M37.315 58.712s-.291 16.98-1.312 18.14c-1.022 1.162-7.149.726-7.586 2.758-.38 1.76 7.828 1.356 8.398 1.337.576-.019 1.273-.004 1.8-.298.927-.518 1.035-1.85 1.035-2.78 0-3.628-.292-19.593-.292-19.593l-2.043.436zM46.19 58.688s.292 16.98 1.313 18.14c1.02 1.162 7.148.726 7.586 2.758.378 1.76-7.829 1.355-8.399 1.337-.576-.019-1.273-.004-1.8-.298-.927-.518-1.035-1.85-1.035-2.78 0-3.629.293-19.593.293-19.593l2.042.436z" transform="translate(-259 -50) translate(259 50)"/>
                    <path fill="#2D2D2D" d="M21.46 62.578c-6.288 0-11.43-5.117-11.43-11.37V11.906c0-6.254 5.142-11.37 11.43-11.37h39.507c6.286 0 11.43 5.116 11.43 11.37v39.302c0 6.253-5.144 11.37-11.43 11.37H21.459z" transform="translate(-259 -50) translate(259 50)"/>
                    <path fill="#FFBA00" d="M24.21 62.578c-5.948 0-10.813-5.117-10.813-11.37V11.906c0-6.254 4.865-11.37 10.812-11.37h37.375c5.947 0 10.813 5.116 10.813 11.37v39.302c0 6.253-4.866 11.37-10.813 11.37H24.209z" transform="translate(-259 -50) translate(259 50)"/>
                    <path fill="#AE8002" d="M54.603 18.298c1.167-.972 1.665-1.351 2.228-1.912.797-.794.772-1.67.3-2.14-.185-.186-.89-.576-1.519-.9-.203-.104-.4-.09-.54.11-.123.176-2.368 3.445-2.846 4.21-.091.145-.167.317.102.56 0 0 .306.274.465.404.627.51 1.036.312 1.81-.332M41.574 19.118c.336.114.698.083 1.028-.032l2.496-.828c.397-.146.839-.109 1.205.1 0 0 .812.383 1.345.642.298.145.542.223.732.223.2 0 .398-.035.625-.13.363-.153 1.018-.519 1.406-.79.215-.15.245-.22.245-.334 0-.131-.112-.274-.327-.453 0 0-2.007-1.807-2.727-2.389-.334-.271-.45-.292-.8-.292h-1.188c-.41 0-.806.104-1.148.296l-4.43 2.383c-.24.13-.337.244-.333.409.003.127.068.22.176.306.051.04 1.284.75 1.695.89M48.904 26.159c-.203.275-4.684 6.319-6.555 8.374-.416.47-.995.726-1.595.726h-.09c-.651-.03-1.252-.368-1.667-.91-.417-.552-1.006-1.524-1.393-2.168l-.122-.194c-.437-.716-.192-1.544.274-1.912.468-.379 1.26-.522 1.951.266 0 .01.672.746.986 1.022.061.062.102.072.102.072s.03-.02.082-.072l6.077-6.738c.57-.585 1.351-.706 1.88-.235.467.408.544 1.119.07 1.769m-3.113-5.864c-.786-.026-1.531-.006-2.011 0-2.654.035-4.68.861-5.99 2.038-1.31 1.177-2.31 3.344-3.007 6.528l-.4 1.872c-.667 3.157-.48 5.374.54 6.658 1.047 1.258 2.706 1.82 5.637 1.93.503.019 1.36.025 2.01 0 2.868-.111 4.663-.628 5.972-1.805 1.31-1.177 2.323-3.33 2.992-6.514l.4-1.873c.666-3.157.432-5.36-.615-6.618-1.02-1.284-2.955-2.127-5.528-2.216M34.187 24.51s.595-.766 1.151-1.49c.354-.463.608-.801.82-1.119.198-.286.288-.505.288-.664 0-.34-.25-.597-.614-.597 0 0-12.922.008-14.645 0-.365 0-.547.272-.547.597 0 .204.262.634.574 1.057.197.264 1.25 1.667 1.676 2.216.112.145.289.235.478.235h2.787L23.403 38.9c-.03.143.084.287.235.287h2.847c1.123 0 2.087-.793 2.3-1.888l2.432-12.555h2.492c.19 0 .364-.09.478-.235M66.921 20.657H52.948c-.433 0-.592.22-.592.552 0 .158.102.402.28.687.706 1.13 1.105 1.774 1.738 2.615.115.15.289.234.48.234h2.537l-2.754 14.173c-.031.15.083.286.242.286h2.863c1.115 0 2.08-.792 2.292-1.887l2.435-12.572 3.49-.008c.166 0 .307-.1.372-.242.217-.482.749-1.64.749-1.64.19-.446.295-.71.471-1.178.06-.163.076-.317.076-.445 0-.378-.31-.575-.706-.575" transform="translate(-259 -50) translate(259 50)"/>
                    <path fill="#FFF" d="M54.937 18.05c1.168-.971 1.666-1.351 2.228-1.912.798-.794.773-1.67.3-2.14-.185-.186-.89-.576-1.518-.9-.203-.105-.4-.09-.54.11-.124.177-2.368 3.445-2.846 4.21-.091.145-.167.317.102.56 0 0 .306.274.465.403.627.511 1.036.313 1.81-.332M41.908 18.87c.337.113.699.083 1.029-.033l2.495-.827c.397-.146.839-.109 1.206.1 0 0 .812.383 1.345.642.298.145.541.223.732.223.2 0 .398-.035.625-.13.363-.153 1.017-.519 1.406-.79.214-.15.245-.22.245-.334 0-.131-.112-.274-.327-.453 0 0-2.008-1.807-2.727-2.39-.335-.27-.45-.29-.8-.29h-1.189c-.41 0-.806.103-1.147.295l-4.431 2.383c-.24.131-.336.244-.332.409.003.127.068.22.176.306.051.04 1.284.751 1.694.89M49.24 25.91c-.204.277-4.686 6.32-6.556 8.375-.416.47-.995.726-1.595.726h-.091c-.65-.03-1.25-.368-1.667-.91-.417-.552-1.006-1.524-1.392-2.168l-.122-.194c-.437-.716-.193-1.544.274-1.912.468-.378 1.26-.521 1.95.266 0 .01.672.746.987 1.022.061.062.102.072.102.072s.03-.02.081-.072l6.077-6.738c.571-.585 1.351-.705 1.88-.235.468.409.545 1.119.071 1.768m-3.113-5.863c-.786-.027-1.532-.006-2.011 0-2.654.034-4.68.861-5.99 2.038-1.31 1.177-2.311 3.344-3.007 6.528l-.4 1.873c-.667 3.156-.48 5.373.54 6.657 1.047 1.258 2.706 1.82 5.637 1.93.502.019 1.36.026 2.01 0 2.868-.11 4.663-.628 5.972-1.805 1.31-1.177 2.322-3.33 2.991-6.514l.4-1.872c.667-3.158.432-5.36-.615-6.618-1.019-1.285-2.954-2.129-5.527-2.217M34.522 24.262s.595-.766 1.15-1.49c.355-.463.608-.801.82-1.119.198-.286.289-.505.289-.664 0-.34-.25-.597-.615-.597 0 0-12.921.008-14.645 0-.364 0-.546.272-.546.597 0 .204.262.634.573 1.057.198.264 1.25 1.667 1.677 2.216.112.145.288.234.478.234h2.786l-2.751 14.156c-.03.144.084.288.235.288h2.846c1.123 0 2.088-.793 2.3-1.888l2.433-12.556h2.491c.19 0 .365-.09.479-.234M67.256 20.41H53.282c-.432 0-.592.218-.592.55 0 .16.103.403.281.688.706 1.129 1.105 1.774 1.738 2.615.114.15.289.234.479.234h2.537l-2.754 14.172c-.03.151.083.288.243.288h2.862c1.116 0 2.08-.793 2.292-1.888l2.436-12.572 3.489-.008c.167 0 .308-.1.372-.242.218-.482.75-1.64.75-1.64.19-.446.295-.711.47-1.179.062-.163.077-.316.077-.445 0-.377-.311-.574-.706-.574" transform="translate(-259 -50) translate(259 50)"/>
                    <path fill="#F8BE9F" d="M31.61 44.632c-.027.325-.048.65-.048.982 0 6.293 4.848 11.395 10.827 11.395 5.98 0 10.827-5.102 10.827-11.395 0-.34-.02-.677-.048-1.01-9.4 1.749-17.677.732-21.559.028" transform="translate(-259 -50) translate(259 50)"/>
                    <path fill="#000" d="M31.61 44.63c-.027.315-.048.629-.048.949 0 6.072 4.848 10.996 10.827 10.996 5.98 0 10.827-4.924 10.827-10.996 0-.33-.02-.653-.048-.975-9.4 1.688-17.677.706-21.559.027" transform="translate(-259 -50) translate(259 50)"/>
                    <g transform="translate(-259 -50) translate(259 50) translate(31.184 44.234)">
                        <mask id="soj4ua2lcf" fill="#fff">
                            <use xlink:href="#2d1o8xdo8e"/>
                        </mask>
                        <path d="M.426.397c-.027.314-.048.628-.048.948 0 6.073 4.849 10.995 10.827 10.995 5.981 0 10.827-4.922 10.827-10.995 0-.33-.02-.653-.048-.974-9.4 1.687-17.677.706-21.558.026" mask="url(#soj4ua2lcf)"/>
                    </g>
                    <path fill="#FFF" d="M51.945 50.747c.81-1.54 1.271-3.3 1.271-5.169 0-.328-.02-.652-.048-.973-9.4 1.688-17.677.706-21.559.026-.026.313-.048.628-.048.947 0 1.872.465 3.633 1.276 5.175 2.969-.117 10.931-.361 19.108-.006" transform="translate(-259 -50) translate(259 50)"/>
                    <g transform="translate(-259 -50) translate(259 50) translate(31.184 44.234)">
                        <mask id="akfxvpcs5i" fill="#fff">
                            <use xlink:href="#5iyntrlhyg"/>
                        </mask>
                        <path fill="url(#k19nz4mskh)" d="M21.852 3.303c.113-.636.18-1.289.18-1.958 0-.33-.02-.653-.048-.974-9.4 1.687-17.677.706-21.558.026-.027.314-.048.628-.048.948 0 .68.07 1.341.186 1.986 4.389.627 12.305 1.302 21.288-.028" mask="url(#akfxvpcs5i)"/>
                    </g>
                    <path fill="#EE6A6A" d="M38.781 55.947s4.932-5.676 9.59-1.202c0 0-4.484 3.259-9.59 1.202" transform="translate(-259 -50) translate(259 50)"/>
                    <g transform="translate(-259 -50) translate(259 50) translate(38.69 52.851)">
                        <mask id="afrkf8lqfk" fill="#fff">
                            <use xlink:href="#rwhjoulx3j"/>
                        </mask>
                        <path d="M.09 3.096s4.932-5.677 9.59-1.203c0 0-4.484 3.26-9.59 1.203" mask="url(#afrkf8lqfk)"/>
                    </g>
                    <path fill="#F8BE9F" d="M38.472 57.289s4.64 1.762 8.473-.28c0 0-3.163 2.588-8.473.28" transform="translate(-259 -50) translate(259 50)"/>
                    <g transform="translate(-259 -50) translate(259 50) translate(72.185 23.553)">
                        <mask id="zcjxauqc5m" fill="#fff">
                            <use xlink:href="#fprrzcx57l"/>
                        </mask>
                        <path fill="#252122" d="M12.354 3.132c-3.23-4.783-4.941-1.512-4.74-1.256.16.2.465.797.921 1.383-.262.096-.515.231-.747.413-1.135.889-1.361 2.487-.504 3.568.39.493.936.79 1.522.889.497 1.776.713 4.292-1.185 6.023-3.223 2.938-7.409-.216-7.409-.216v2.541s4.83 3.005 8.526.663c3.695-2.341 6.847-9.225 3.616-14.008" mask="url(#zcjxauqc5m)"/>
                    </g>
                </g>
            </g>
        </g>
    </g>
</svg>
