<svg xmlns="http://www.w3.org/2000/svg" width="16" height="16" viewBox="0 0 16 16">
    <g fill="none" fill-rule="evenodd">
        <path stroke="#FFF" stroke-width=".1" d="M0 0H16V16H0z" opacity=".01"/>
        <path fill="#9B9B9B" d="M14.538 13.725H1.556V9.04c.194.064.36.052.562.052h3.54c.07.581.544.968 1.116.968h2.449c.572 0 1.045-.387 1.117-.968h3.54c.198 0 .464.012.658-.054v4.687zM9.5 8.47v.472c0 .19-.154.344-.345.344h-2.41c-.19 0-.346-.154-.346-.344v-.472c0-.19.155-.344.346-.344h2.41c.19 0 .345.155.345.344zM6.206.921c0-.053.021-.147.074-.147h3.431c.053 0 .176.094.176.147v1.013h-3.68V.921zm8.842 1.013h-4.385V.918c0-.484-.466-.918-.952-.918h-3.43c-.486 0-.85.434-.85.918v1.016H.894c-.352 0-.694.349-.694.7v4.647c0 .464.194.916.581 1.255v5.305c0 .364.263.659.627.659h13.09c.414 0 .814-.334.814-.747V8.536c.195-.341.388-.784.388-1.255V2.685c0-.38-.271-.75-.652-.75z"/>
    </g>
</svg>
