<svg xmlns="http://www.w3.org/2000/svg" width="26" height="16" viewBox="0 0 26 16">
    <g fill="none" fill-rule="evenodd">
        <path fill="#1DA1F2" d="M19.768 14.9c.132.133.331.133.464 0l.795-.733c.066-.068.199-.068.33-.068l1.06.334c.133.067.332-.067.397-.2l.399-1c.065-.066.132-.2.264-.2l1.127-.2c.197 0 .265-.2.265-.333l-.068-1.067c0-.134.068-.2.133-.266l.928-.6c.132-.067.198-.268.066-.4l-.53-.934c-.066-.066-.066-.2 0-.332l.53-.934c.066-.133.066-.333-.066-.4l-.928-.6c-.065-.066-.133-.2-.133-.266l.068-1.134c0-.2-.133-.267-.265-.333l-1.193-.267c-.133 0-.198-.066-.265-.2l-.397-1c-.066-.133-.199-.2-.398-.2l-1.06.334c-.132.066-.198 0-.33-.067l-.795-.734c-.133-.133-.331-.133-.463 0l-.796.734c-.066.067-.198.067-.33.067l-1.061-.334c-.132-.066-.33.067-.397.2l-.397 1c0 .067-.066.2-.2.2l-1.125.2c-.199 0-.265.2-.265.334l.066 1.133c0 .133-.066.2-.132.267l-.928.6c-.132.066-.199.266-.065.4l.53.933c.066.067.066.2 0 .333l-.53.932c-.067.134-.067.334.065.401l.928.6c.066.067.132.2.132.266l-.066 1.134c0 .2.133.266.265.333l1.126.2c.133 0 .2.066.265.2l.397 1c.067.133.199.2.398.2l1.06-.334c.132-.066.198-.066.33.068l.795.733z"/>
        <path fill="#FEFEFE" d="M19.5 11.5L17 9.04 17.833 8.22 19.417 9.779 22.584 6.5 23.5 7.32z"/>
        <path fill="#F7981D" d="M9.997 13.923h-4.14v-3.342c0-.66.697-1.154 1.32-1.154h1.69c.645 0 1.13.496 1.13 1.154v3.342zm3.924-.855c-.076-.039-.151-.078-.21-.133-.075.757-.378.988-1.256.988h-1.887v-3.342c0-.97-.746-1.731-1.7-1.731H7.177c-.894 0-1.891.711-1.891 1.731v3.342H3.78c-1.096 0-1.473-.38-1.473-1.487V7.239l.125-.007c.219-.025.459-.084.724-.191.084-.04.165-.085.243-.136l.01-.006c.08-.052.157-.109.237-.177l.108-.098.106-.107.096-.112.09-.118.002-.003c.058-.081.112-.166.159-.255.377.728 1.099 1.22 1.927 1.22.82 0 1.537-.485 1.916-1.204.378.719 1.093 1.204 1.913 1.204.817 0 1.53-.484 1.908-1.201.045.088.096.172.15.252l.06.076c.04.052.078.104.12.151l.04.042.102.101.063.059c.03.026.064.049.096.074 0 .001 0 .002.002.002l1.027-.66c.078-.077.156-.156.156-.311l-.078-1.322c0-.156.078-.39.31-.39l1.323-.232c.156 0 .233-.156.233-.234l.05-.127L14.293.194 14.26.128C14.207.049 14.122 0 14.028 0H2.085l-.066.009c-.085.021-.157.085-.193.173L.025 4.534l-.02.061L0 4.658v.223l.007.179c.053.708.418 1.339.946 1.739.099.071.208.144.329.208.135.07.277.126.424.171l.028.007v.021c0 .012 0 .023.003.034v5.196c0 1.434.623 2.064 2.044 2.064h8.674c1.125 0 1.648-.403 1.8-1.374l-.334-.058z"/>
        <path stroke="#FFF" stroke-width=".1" d="M0 0H26V16H0z" opacity=".01"/>
    </g>
</svg>
