<svg xmlns="http://www.w3.org/2000/svg" width="16" height="16" viewBox="0 0 16 16">
    <g fill="none" fill-rule="evenodd">
        <path fill="#FE9900" d="M1.834 7.184l-.028-.007c-.147-.044-.29-.1-.424-.17-.121-.065-.23-.137-.33-.208-.527-.4-.892-1.032-.945-1.74L.1 4.881v-.223l.006-.063.018-.06L1.925.18c.037-.088.11-.151.194-.173L2.185 0h11.943c.093 0 .179.049.231.128l.033.065 1.612 4.353.015.055.005.058v.222c0 .735-.29 1.381-.755 1.812-.31.26-.606.403-.865.48l.004.021v5.241c0 1.485-.488 2.065-1.854 2.065H3.881c-1.42 0-2.044-.63-2.044-2.065V7.24c-.002-.012-.003-.023-.003-.035v-.021zm11.858.054l-.04-.005c-.044-.005-.088-.01-.132-.017-.052-.01-.102-.022-.152-.035-.042-.01-.085-.02-.126-.034-.05-.016-.097-.036-.145-.056-.04-.016-.08-.032-.118-.05-.047-.023-.093-.05-.138-.077-.036-.02-.073-.04-.108-.064-.045-.03-.088-.064-.13-.097-.033-.025-.066-.048-.096-.075l-.063-.059-.101-.101-.04-.041c-.043-.048-.082-.1-.12-.151-.02-.026-.041-.05-.06-.077-.055-.08-.106-.164-.152-.251-.377.717-1.09 1.201-1.907 1.201-.82 0-1.536-.486-1.914-1.204-.378.718-1.095 1.204-1.916 1.204-.827 0-1.55-.493-1.926-1.22-.048.089-.101.174-.16.255v.003l-.09.118-.097.111-.106.108-.108.098c-.08.067-.157.124-.237.176l-.01.007c-.078.05-.16.095-.244.135-.264.107-.505.167-.724.191l-.124.008v5.196c0 1.108.376 1.488 1.473 1.488h1.505V10.58c0-1.02.996-1.73 1.89-1.73h1.692c.953 0 1.7.76 1.7 1.73v3.343h1.886c1.05 0 1.283-.321 1.283-1.488V7.249c-.054-.001-.103-.005-.145-.01zM8.968 9.427H7.277c-.623 0-1.32.493-1.32 1.153v3.343h4.14V10.58c0-.657-.485-1.153-1.129-1.153z"/>
        <path stroke="#FFF" stroke-width=".1" d="M0 0H16V16H0z" opacity=".01"/>
    </g>
</svg>
