<svg width="32" height="32" xmlns="http://www.w3.org/2000/svg" xmlns:xlink="http://www.w3.org/1999/xlink">
    <defs>
        <path id="a" d="M0 0h32v32H0z"/>
    </defs>
    <g fill="none" fill-rule="evenodd">
        <g>
            <mask id="b" fill="#fff">
                <use xlink:href="#a"/>
            </mask>
            <path d="M32 16c0 8.836-7.163 16-16 16S0 24.836 0 16C0 7.163 7.163 0 16 0s16 7.163 16 16" fill="#0094A3" mask="url(#b)"/>
        </g>
        <path d="M16.54 17.663a.682.682 0 0 1-.335-.74.054.054 0 0 1 .01-.021 6.57 6.57 0 0 0 .702-1.082c.541-1.04.79-2.209.79-3.382v-1.51c0-1.353-.875-2.573-2.176-2.95a2.65 2.65 0 0 0-.094-.025l-.15-.033h-2.09l-.15.033-.094.026c-1.3.376-2.176 1.596-2.176 2.95v1.508c0 1.176.25 2.348.795 3.39.189.363.42.732.704 1.084l.003.012a.681.681 0 0 1-.335.74L7.69 20.02a1.143 1.143 0 0 0-.588.999v1.597a1.465 1.465 0 0 0 1.464 1.464H19.917a1.465 1.465 0 0 0 1.464-1.464v-1.597c0-.415-.225-.798-.588-.999l-4.252-2.357z" fill="#FEFEFE"/>
        <path d="M18.107 8.088a.125.125 0 0 1 .108-.18c.668-.024 2.937.028 3.324 1.825.454 2.112-.18 3.375-1.04 5.133 0 0-.335.397.032.78.176.183 3.795 1.67 4.224 2.827.33.89.068 1.668-.612 2.353-.257.26-.607.409-.972.409h-.463s.747-1.25-1.007-2.185a263.71 263.71 0 0 1-3.51-1.91s-.608-.193-.162-.78c.45-.59 1.942-4.127.078-8.272" fill="#FEFEFE"/>
    </g>
</svg>
