<svg xmlns="http://www.w3.org/2000/svg" width="60" height="60" viewBox="0 0 60 60">
    <g fill="none" fill-rule="evenodd">
        <circle cx="30" cy="30" r="30" fill="#4DB137"/>
        <path fill="#CCF8C2" d="M31.04 38.818l9.897 3.494c2.317.782 3.164.064 2.541-2.154-.623-2.217-1.521-5.693-2.695-10.426l6.542-8.741c.93-1.677.356-2.594-1.721-2.752-2.077-.159-5.561-.353-10.452-.582l-6.149-9.135c-1.393-2.018-2.468-1.886-3.223.396-.755 2.282-1.863 5.584-3.324 9.906l-10.912 3.597c-1.744.628-1.834 1.627-.27 2.996 1.564 1.37 4.179 3.534 7.843 6.494l-.104 12.09c.035 1.892 1.013 2.106 2.934.643 1.92-1.464 4.951-3.406 9.092-5.826z"/>
    </g>
</svg>
