<?xml version="1.0" encoding="utf-8"?>
<!-- Generator: Adobe Illustrator 21.1.0, SVG Export Plug-In . SVG Version: 6.00 Build 0)  -->
<svg version="1.0" id="Layer_1" xmlns="http://www.w3.org/2000/svg" xmlns:xlink="http://www.w3.org/1999/xlink" x="0px" y="0px"
	 viewBox="0 0 60 60" enable-background="new 0 0 60 60" xml:space="preserve">
<g>
	<path id="path-3" fill="#FFFFFF" d="M39.9,39.9c-0.8,0.8-1.7,1.5-2.7,2.1l-4.1-4.1c1.1-0.4,2-1.1,2.9-1.9c0.8-0.9,1.5-1.8,1.9-2.9
		l4.1,4.1C41.4,38.2,40.7,39.1,39.9,39.9L39.9,39.9z M24.7,35.3c-2.9-3-2.9-7.7,0-10.7c2.9-2.9,7.7-2.9,10.7,0
		c2.9,2.9,2.9,7.7,0,10.7C32.4,38.3,27.6,38.3,24.7,35.3L24.7,35.3z M22.8,42c-1-0.6-1.9-1.3-2.7-2.1c-0.8-0.8-1.5-1.7-2.1-2.7
		l4.1-4.1c0.4,1.1,1,2,1.9,2.9c0.9,0.8,1.8,1.5,2.9,1.9L22.8,42z M20.1,20.1c0.8-0.8,1.7-1.5,2.7-2.1l4.1,4.1c-1.1,0.4-2,1-2.9,1.9
		c-0.9,0.9-1.5,1.8-1.9,2.9L18,22.8C18.6,21.8,19.3,20.9,20.1,20.1L20.1,20.1z M37.2,18c1,0.6,1.9,1.3,2.7,2.1
		c0.8,0.8,1.5,1.7,2.1,2.7l-4.1,4.1c-0.4-1.1-1-2-1.9-2.9c-0.8-0.9-1.8-1.5-2.9-1.9L37.2,18z M40.6,19.4c-5.9-5.9-15.4-5.9-21.2,0
		c-5.9,5.9-5.9,15.4,0,21.2c5.9,5.9,15.4,5.9,21.2,0C46.5,34.7,46.5,25.3,40.6,19.4L40.6,19.4z"/>
</g>
<g>
	<polygon id="path-1" fill="#FFFFFF" points="45,15 15,15 15,45 45,45 45,15 15,15 15,45 45,45 45,15 	"/>
</g>
<g id="trogiup">
	<g id="Trợ-giúp-Copy">
		<circle id="Oval-5-Copy-6" fill="#68665E" cx="30" cy="30" r="30"/>
		<g id="Page-1" transform="translate(15.000000, 15.000000)">
			<g id="Fill-1">
				<path id="path-3_1_" fill="#FFFFFF" d="M24.9,24.9c-0.8,0.8-1.7,1.5-2.7,2.1l-4.1-4.1c1.1-0.4,2-1.1,2.9-1.9
					c0.8-0.9,1.5-1.8,1.9-2.9l4.1,4.1C26.4,23.2,25.7,24.1,24.9,24.9L24.9,24.9z M9.7,20.3c-2.9-3-2.9-7.7,0-10.7
					c2.9-2.9,7.7-2.9,10.7,0c2.9,2.9,2.9,7.7,0,10.7C17.4,23.3,12.6,23.3,9.7,20.3L9.7,20.3z M7.8,27c-1-0.6-1.9-1.3-2.7-2.1
					c-0.8-0.8-1.5-1.7-2.1-2.7l4.1-4.1c0.4,1.1,1,2,1.9,2.9c0.9,0.8,1.8,1.5,2.9,1.9L7.8,27z M5.1,5.1C5.9,4.3,6.8,3.6,7.8,3
					l4.1,4.1c-1.1,0.4-2,1-2.9,1.9c-0.9,0.9-1.5,1.8-1.9,2.9L3,7.8C3.6,6.8,4.3,5.9,5.1,5.1L5.1,5.1z M22.2,3c1,0.6,1.9,1.3,2.7,2.1
					c0.8,0.8,1.5,1.7,2.1,2.7l-4.1,4.1c-0.4-1.1-1-2-1.9-2.9c-0.8-0.9-1.8-1.5-2.9-1.9L22.2,3z M25.6,4.4c-5.9-5.9-15.4-5.9-21.2,0
					c-5.9,5.9-5.9,15.4,0,21.2c5.9,5.9,15.4,5.9,21.2,0C31.5,19.7,31.5,10.3,25.6,4.4L25.6,4.4z"/>
			</g>
		</g>
	</g>
</g>
</svg>
