<?xml version="1.0" encoding="utf-8"?>
<!-- Generator: Adobe Illustrator 21.1.0, SVG Export Plug-In . SVG Version: 6.00 Build 0)  -->
<svg version="1.2" baseProfile="tiny" id="Layer_1" xmlns="http://www.w3.org/2000/svg" xmlns:xlink="http://www.w3.org/1999/xlink"
	 x="0px" y="0px" viewBox="0 0 60 60" xml:space="preserve">
<g id="taiapp">
	<g id="Tải-app-Copy">
		<circle id="Oval-5-Copy" fill="#48B434" cx="30" cy="30" r="30"/>
		<g id="Page-1" transform="translate(13.000000, 15.000000)">
			<path id="Fill-1" fill="#FFFFFF" d="M25,19c0,1.1,0.9,2,2,2c1.1,0,2-0.9,2-2s-0.9-2-2-2C25.9,17,25,17.9,25,19"/>
			<g id="Group-5" transform="translate(9.000000, 0.000000)">
				<path id="Fill-3" fill="#FFFFFF" d="M8.4,17.9C8.5,18,8.6,18,8.8,18c0.2,0,0.3,0,0.4-0.1l8.3-8.6c0.1-0.1,0.1-0.2,0.1-0.3
					c0-0.1,0-0.3-0.1-0.3l-4.4,0l-0.4,0l-0.2-0.2l0-7.6c0-0.5-0.1-1-1.1-1h-5c-1,0-1.1,0.5-1.1,1l0,7.6L5,8.7l-0.4,0l-4.4,0
					C0.1,8.8,0,8.9,0,9c0,0.1,0,0.2,0.1,0.3L8.4,17.9z"/>
			</g>
			<g id="Group-8" transform="translate(0.000000, 12.000000)">
				<path id="Fill-6" fill="#FFFFFF" d="M31.9,0.1h-0.8c0,0-1.4,0-1.4,0l-2.2,2.3h3.4c0.5,0,1,0.5,1,1v4.5v4.5c0,0.6-0.4,1-1,1H4
					c-0.6,0-1-0.4-1-1V7.9V3.4c0-0.6,0.4-1,1-1h0.8h2.7L5.3,0.1c0,0-1.4,0-1.4,0H3c-1.7,0-3,1.4-3,3v4.8v7.6c0,1.7,1.3,3,3,3h28.9
					c1.6,0,3-1.4,3-3V7.9V3.1C34.9,1.4,33.6,0.1,31.9,0.1"/>
			</g>
		</g>
	</g>
</g>
</svg>
