<svg id="Layer_1" xmlns="http://www.w3.org/2000/svg" viewBox="0 0 60 60"><style>.st2{fill:none;stroke:#fff}</style><g id="Vong-quay-may-man"><g id="_x31_5" transform="translate(-43 -1276)"><g id="Tải-app" transform="translate(43 1276)"><circle id="Oval-5-Copy" cx="30" cy="30" r="30" fill="#48b434"/><g id="noun_wheel-of-fortune_1454005" transform="translate(14 10)"><path id="Shape" d="M12.4 31.8c2.3.7 4.7.7 7.1 0L16 23.3l-3.6 8.5zm-8.2-8.2l8.6-3.5-8.6-3.5c-.7 2.2-.7 4.6 0 7zm8.2-15.3l3.6 8.6 3.6-8.6c-2.3-.7-4.8-.7-7.2 0zm15.4 8.2l-8.6 3.6 8.6 3.5c.7-2.2.7-4.7 0-7.1zm-11.2 5.1c.8-.4 1.3-1.3.9-2.2-.4-.8-1.3-1.2-2.2-.9-.8.4-1.3 1.3-.9 2.2.4.9 1.4 1.3 2.2.9zM30.8 14C27.4 5.9 18 2 9.9 5.4 1.7 8.7-2.2 18 1.2 26.2c3.4 8.1 12.7 12 20.9 8.6 8.2-3.4 12.1-12.7 8.7-20.8zM10.5 6.8c7.3-3 15.8.4 18.8 7.7s-.4 15.7-7.8 18.7c-7.3 3-15.8-.4-18.8-7.7-3-7.2.4-15.6 7.8-18.7zM16.1 3l3-3h-6l3 3zM7 40h18l-2.3-4c-4.4 1.8-9.2 1.8-13.5 0L7 40z" fill="#fff"/><path id="Path" class="st2" d="M10 30.3l3-7.4L5.7 26c1.1 1.8 2.6 3.2 4.3 4.3z"/><path id="Path_1_" class="st2" d="M22 9.7l-3 7.4 7.4-3c-1.2-1.9-2.7-3.3-4.4-4.4z"/><path id="Path_2_" class="st2" d="M13.1 17.1L10 9.7c-1.8 1.1-3.3 2.5-4.3 4.3l7.4 3.1z"/><path id="Path_3_" class="st2" d="M18.9 22.9l3.1 7.4c1.8-1.1 3.3-2.5 4.3-4.3l-7.4-3.1z"/></g></g></g></g></svg>