<svg xmlns="http://www.w3.org/2000/svg" width="115" height="39" viewBox="0 0 115 39">
    <defs>
        <linearGradient id="a" x1="49.98%" x2="49.98%" y1="0%" y2="100%">
            <stop offset="0%" stop-color="#257DB0"/>
            <stop offset="21%" stop-color="#3C90B3"/>
            <stop offset="74%" stop-color="#73BDB9"/>
            <stop offset="100%" stop-color="#89CEBC"/>
        </linearGradient>
        <linearGradient id="b" x1="0%" y1="50.02%" y2="50.02%">
            <stop offset="0%" stop-color="#51BFAC"/>
            <stop offset="100%" stop-color="#DEE899"/>
        </linearGradient>
        <linearGradient id="c" x1="50.016%" x2="50.016%" y1="0%" y2="100%">
            <stop offset="0%" stop-color="#EB403D"/>
            <stop offset="19%" stop-color="#D64252"/>
            <stop offset="74%" stop-color="#9F4887"/>
            <stop offset="100%" stop-color="#894A9C"/>
        </linearGradient>
        <linearGradient id="d" x1="49.972%" x2="49.972%" y1="0%" y2="100%">
            <stop offset="0%" stop-color="#F48779"/>
            <stop offset="61%" stop-color="#FAB076"/>
            <stop offset="100%" stop-color="#FDC674"/>
        </linearGradient>
    </defs>
    <g fill="none" fill-rule="nonzero">
        <path fill="#FFF" stroke="#D2D0D0" stroke-width=".625" d="M5.996 1h102.977c2.76 0 4.997 2.277 4.997 5.086V33.53a5.132 5.132 0 0 1-1.464 3.596 4.952 4.952 0 0 1-3.533 1.49H5.991a4.947 4.947 0 0 1-3.53-1.49A5.127 5.127 0 0 1 1 33.53V6.086C1 3.276 3.237 1 5.996 1z"/>
        <path fill="url(#a)" d="M.365.536v25.47l12.622-12.735z" transform="translate(9.108 7.705)"/>
        <path fill="url(#b)" d="M16.372 9.852L11.28 6.86.365.444v.092l12.622 12.735z" transform="translate(9.108 7.705)"/>
        <path fill="url(#c)" d="M.365 26.006v.093l10.915-6.411 5.092-2.997-3.385-3.42z" transform="translate(9.108 7.705)"/>
        <path fill="url(#d)" d="M16.372 9.852l-3.385 3.42 3.385 3.419 5.823-3.42z" transform="translate(9.108 7.705)"/>
        <path fill="#000" d="M88.917 25.959a3.1 3.1 0 0 1-1.297-.268 2.457 2.457 0 0 1-.988-.82h-.081c.052.407.079.817.08 1.227v3.043h-1.099V18.413h.897l.152 1.032h.05c.257-.378.606-.68 1.014-.877a2.96 2.96 0 0 1 1.292-.269 2.671 2.671 0 0 1 2.235 1.032 5.446 5.446 0 0 1 0 5.674 2.673 2.673 0 0 1-2.255.954zm-.157-6.705a1.933 1.933 0 0 0-1.611.629 3.284 3.284 0 0 0-.507 2.001v.248c-.067.78.11 1.562.507 2.233.41.479 1.02.728 1.641.67a1.7 1.7 0 0 0 1.48-.778 3.74 3.74 0 0 0 .532-2.14 3.598 3.598 0 0 0-.532-2.126 1.748 1.748 0 0 0-1.51-.758v.02zM94.491 25.825h-1.105V15.308h1.105zM100.83 25.825l-.218-1.032h-.05a3.056 3.056 0 0 1-1.085.944c-.429.178-.89.263-1.353.248a2.405 2.405 0 0 1-1.697-.568 2.083 2.083 0 0 1-.613-1.614c0-1.496 1.182-2.28 3.547-2.352l1.236-.041v-.46a1.901 1.901 0 0 0-.37-1.289 1.504 1.504 0 0 0-1.18-.418 4.734 4.734 0 0 0-2.058.568l-.375-.882a5.13 5.13 0 0 1 1.18-.464c.421-.113.854-.17 1.288-.17a2.738 2.738 0 0 1 1.93.587c.463.51.691 1.197.629 1.888v5.055h-.81zm-2.488-.81a2.216 2.216 0 0 0 1.617-.572c.41-.429.623-1.013.587-1.61v-.67l-1.104.046a3.95 3.95 0 0 0-1.895.418 1.26 1.26 0 0 0-.583 1.145c-.023.347.11.686.36.923.29.228.652.342 1.018.32zM102.284 18.413h1.181l1.596 4.224c.263.672.482 1.362.654 2.063h.05c.058-.23.178-.624.36-1.18.183-.558.784-2.277 1.804-5.159h1.181l-3.126 8.433a4.22 4.22 0 0 1-1.085 1.775c-.43.35-.969.534-1.52.516a4.374 4.374 0 0 1-1.013-.114v-.861c.268.057.541.084.815.082a1.689 1.689 0 0 0 1.622-1.3l.405-1.031-2.924-7.448zM68.501 19.104a2.624 2.624 0 0 1 1.08 2.094c0 1.145-.64 1.687-1.278 2.203-.24.18-.394.456-.425.758a.853.853 0 0 0 .395.665l.547.433c.67.573 1.277 1.1 1.277 2.172 0 1.454-1.383 2.93-4.003 2.93-2.21 0-3.273-1.068-3.273-2.218a2.232 2.232 0 0 1 1.17-1.888 6.494 6.494 0 0 1 2.909-.712 1.633 1.633 0 0 1-.456-1.031c.005-.21.057-.417.152-.604-.167 0-.335.031-.507.031a2.383 2.383 0 0 1-1.779-.665 2.47 2.47 0 0 1-.755-1.77c.02-.797.374-1.549.973-2.063a4.1 4.1 0 0 1 2.726-.85h3.137l-.973.556-.917-.04zm-1.08 6.88a2.31 2.31 0 0 0-.349 0c-.54.01-1.077.094-1.596.248a1.73 1.73 0 0 0-1.307 1.594c0 1.099 1.048 1.893 2.68 1.893 1.46 0 2.24-.712 2.24-1.676-.01-.805-.512-1.223-1.672-2.058h.005zm.442-2.944c.265-.308.4-.71.375-1.12 0-1.114-.654-2.852-1.916-2.852-.411.007-.8.195-1.064.516a1.813 1.813 0 0 0-.334 1.145c0 1.031.592 2.76 1.905 2.76a1.547 1.547 0 0 0 1.034-.45zM58.919 25.737a3.553 3.553 0 0 1-2.616-1.025 3.684 3.684 0 0 1-1.093-2.627 3.864 3.864 0 0 1 1.188-2.726 3.727 3.727 0 0 1 2.749-1.034 3.514 3.514 0 0 1 2.579 1.04 3.644 3.644 0 0 1 1.054 2.612 3.813 3.813 0 0 1-1.147 2.714 3.678 3.678 0 0 1-2.714 1.046zm1.9-1.253c.331-.507.492-1.11.456-1.718 0-1.361-.638-3.961-2.534-3.961a2.096 2.096 0 0 0-1.368.516 2.365 2.365 0 0 0-.699 1.888c0 1.547.745 4.048 2.584 4.048a1.928 1.928 0 0 0 1.556-.758l.005-.015zM50.68 25.737a3.553 3.553 0 0 1-2.616-1.025 3.684 3.684 0 0 1-1.094-2.627 3.864 3.864 0 0 1 1.183-2.736 3.727 3.727 0 0 1 2.754-1.04 3.514 3.514 0 0 1 2.58 1.041 3.644 3.644 0 0 1 1.054 2.612 3.814 3.814 0 0 1-1.141 2.724 3.678 3.678 0 0 1-2.72 1.051zm1.9-1.238c.331-.507.491-1.11.456-1.717 0-1.362-.639-3.962-2.534-3.962a2.096 2.096 0 0 0-1.368.516 2.365 2.365 0 0 0-.7 1.888c0 1.547.746 4.049 2.585 4.049.61.006 1.19-.28 1.56-.774zM45.81 25.495l-2.184.516a15.94 15.94 0 0 1-2.534.263c-4.216 0-5.822-3.157-5.822-5.633 0-3.017 2.275-5.818 6.172-5.818.79.001 1.575.11 2.336.325.73.188 1.417.516 2.027.965l-1.267 1.227-.532.124.38-.624a4.333 4.333 0 0 0-3.268-1.46c-2.412 0-4.232 1.867-4.232 4.59 0 2.925 2.078 5.674 5.407 5.674a4.491 4.491 0 0 0 1.94-.387v-2.501l-2.305.124 1.222-.67h3.237l-.395.386a.362.362 0 0 0-.152.248c0 .139-.03.593-.03.747v1.904z"/>
        <path fill="#000" d="M73.305 25.046c-.507-.046-.608-.14-.608-.748V15.396c.06-.542.213-.64.689-.918h-2.184l-1.145.562h1.165v9.604c0 .31-.06.356-.41.825h2.706l.567-.34c-.238-.037-.496-.052-.78-.083zM79.548 25.19c-.168.093-.335.202-.507.279a3.493 3.493 0 0 1-1.475.294 3.202 3.202 0 0 1-2.027-.604 4.024 4.024 0 0 1-1.545-3.26 3.536 3.536 0 0 1 .996-2.532 3.41 3.41 0 0 1 2.48-1.037 2.91 2.91 0 0 1 1.566.434c.532.36.91.914 1.059 1.547l-3.547 1.47-1.17.093c.38 1.96 1.682 3.095 3.126 3.095a3.87 3.87 0 0 0 1.85-.516l-.806.737zm-1.424-4.6c.289-.109.44-.202.44-.418a1.529 1.529 0 0 0-1.52-1.33c-.608 0-1.743.479-1.743 2.145 0 .263.03.516.046.82l2.777-1.217zM81.012 18.434v1.031h-.106v-1.031h-.33v-.124h.786v.103zM82.375 19.455v-1.032l-.309 1.032h-.096l-.31-1.032v1.032h-.11V18.31h.187l.283.908.28-.908h.192v1.124zM38.34 11.795h-.76a5.192 5.192 0 0 0-.217-.902h-1.115a4.71 4.71 0 0 0-.223.902H35.3c0-.061.184-.577.553-1.547.22-.52.405-1.053.552-1.599h.922c.137.535.306 1.06.507 1.573.2.514.369 1.04.507 1.573zm-1.094-1.366c-.158-.442-.293-.891-.405-1.347h-.036c0 .062-.14.511-.42 1.347h.861zM41.381 11.795h-.588a5.909 5.909 0 0 0-.653-1.031 5.787 5.787 0 0 1-.786-1.377h-.035c.037.316.058.635.06.954 0 .399.012.884.036 1.454h-.568a34.939 34.939 0 0 0 0-3.146h.705c.15.369.348.716.588 1.032.289.398.529.831.714 1.29h.02a9.286 9.286 0 0 1-.055-.965c0-.437-.012-.884-.036-1.341h.598c-.024.398-.035.899-.035 1.5 0 .602.011 1.146.035 1.63zM44.817 10.114c.006.44-.147.866-.431 1.197-.306.35-.752.539-1.211.515-.233 0-.556-.01-.968-.03.02-.485.03-1.034.03-1.646 0-.612-.01-1.112-.03-1.5h.983c.456-.044.908.114 1.242.432.252.282.39.65.385 1.032zm-.649.103a1.179 1.179 0 0 0-.263-.779 1.004 1.004 0 0 0-.811-.32 2.45 2.45 0 0 0-.279 0v2.177c.102.02.205.031.31.031a.89.89 0 0 0 .754-.325c.183-.22.285-.496.289-.784zM47.968 11.795h-.704c-.1-.36-.24-.705-.42-1.031a.548.548 0 0 0-.477-.201h-.263v1.253h-.659c.02-.485.03-1.033.03-1.645 0-.612-.01-1.113-.03-1.501h1.125c.726 0 1.09.252 1.09.758a.849.849 0 0 1-.624.836v.036a.744.744 0 0 1 .42.381c.198.358.369.73.512 1.114zm-.891-2.223c0-.32-.203-.48-.608-.48-.133 0-.265.012-.396.037.017.25.026.576.026.975h.223c.516.003.775-.174.775-.532h-.02zM51.389 10.166c.015.452-.145.893-.446 1.227-.28.319-.684.498-1.105.49a1.382 1.382 0 0 1-1.049-.449 1.595 1.595 0 0 1-.42-1.14 1.751 1.751 0 0 1 .446-1.227c.28-.319.684-.498 1.104-.49.397-.009.778.155 1.05.449.284.307.435.718.42 1.14zm-.654.072a1.263 1.263 0 0 0-.253-.82.776.776 0 0 0-.629-.315.721.721 0 0 0-.587.315 1.28 1.28 0 0 0-.244.8c-.012.293.077.581.254.814a.776.776 0 0 0 .623.315.721.721 0 0 0 .588-.32 1.28 1.28 0 0 0 .243-.79h.005zM52.727 11.795h-.674a40.753 40.753 0 0 0 0-3.146h.674a41 41 0 0 0 0 3.146zM56.167 10.114c.007.44-.147.866-.43 1.197-.307.35-.752.539-1.211.515-.234 0-.556-.01-.968-.03.02-.485.03-1.034.03-1.646 0-.612-.015-1.112-.046-1.5h1.014c.456-.044.907.114 1.241.432.247.284.38.653.37 1.032zm-.648.103a1.179 1.179 0 0 0-.264-.779 1.004 1.004 0 0 0-.81-.32 2.45 2.45 0 0 0-.28 0v2.177c.103.02.206.031.31.031a.89.89 0 0 0 .755-.325c.182-.22.284-.496.289-.784zM60.728 11.795h-.76a5.182 5.182 0 0 0-.218-.902h-1.09a4.736 4.736 0 0 0-.223.902h-.714c0-.061.184-.577.552-1.547.22-.52.405-1.053.553-1.599h.897c.136.535.305 1.06.506 1.573.196.514.362 1.04.497 1.573zm-1.105-1.366a13.84 13.84 0 0 1-.405-1.347h-.036c0 .062-.14.511-.42 1.347h.861zM63.5 9.474a.944.944 0 0 1-.42.851 1.85 1.85 0 0 1-1.014.274h-.157c0 .302.008.701.025 1.196h-.69c.021-.464.031-1.012.031-1.645 0-.581-.01-1.081-.03-1.5h1.18c.268-.01.533.062.76.205.206.135.325.371.315.62zm-.613.134c0-.343-.225-.515-.674-.515-.12 0-.238.013-.355.036.017.302.025.646.025 1.031h.137c.578.004.867-.18.867-.552zM66.342 9.474a.95.95 0 0 1-.42.851 1.85 1.85 0 0 1-1.014.274h-.157c0 .302.009.701.026 1.196h-.67c.021-.464.031-1.012.031-1.645 0-.581-.01-1.081-.03-1.5h1.18c.268-.01.533.062.76.205.198.14.31.375.294.62zm-.613.134c0-.343-.224-.515-.674-.515-.119 0-.238.013-.354.036.016.302.025.646.025 1.031h.137c.577.004.866-.18.866-.552zM70.994 10.166c.015.452-.145.893-.446 1.227-.28.319-.684.498-1.104.49a1.382 1.382 0 0 1-1.05-.449 1.595 1.595 0 0 1-.42-1.14 1.751 1.751 0 0 1 .446-1.227c.28-.319.684-.498 1.105-.49.396-.01.778.154 1.049.449.284.307.435.718.42 1.14zm-.654.072a1.263 1.263 0 0 0-.253-.82.776.776 0 0 0-.628-.315.721.721 0 0 0-.588.315 1.28 1.28 0 0 0-.243.8c-.013.293.077.581.253.814a.776.776 0 0 0 .623.315.721.721 0 0 0 .588-.32c.168-.227.255-.505.248-.79zM74.212 11.795h-.588a5.898 5.898 0 0 0-.654-1.031 5.787 5.787 0 0 1-.78-1.367h-.035c.037.317.058.635.06.954 0 .4.012.884.036 1.455h-.583a34.939 34.939 0 0 0 0-3.147h.704c.151.37.349.716.588 1.032.29.398.53.831.715 1.29h.035a9.28 9.28 0 0 1-.056-.965c0-.437-.011-.884-.035-1.341h.593c-.024.399-.036.9-.036 1.5 0 .603.012 1.142.036 1.62z"/>
    </g>
</svg>
