<svg xmlns="http://www.w3.org/2000/svg" width="115" height="39" viewBox="0 0 115 39">
    <g fill="none" fill-rule="nonzero">
        <path fill="#FFF" stroke="#D2D0D0" stroke-width=".625" d="M5.996 1h103.008C111.763 1 114 3.278 114 6.087v27.465a5.135 5.135 0 0 1-1.459 3.606 4.952 4.952 0 0 1-3.537 1.494H5.992c-1.327 0-2.6-.537-3.536-1.495A5.131 5.131 0 0 1 1 33.552V6.087C1 3.277 3.237 1 5.996 1z"/>
        <path fill="#000" d="M30.39 25.998a19.105 19.105 0 0 1-1.648 3.176c-1.07 1.69-2.568 3.787-4.447 3.805-1.66 0-2.084-1.118-4.34-1.11-2.255.01-2.722 1.127-4.382 1.11-1.867 0-3.296-1.916-4.366-3.601C8.21 24.659 7.903 19.12 9.747 16.18c1.31-2.093 3.377-3.317 5.325-3.317 1.947 0 3.223 1.126 4.862 1.126 1.64 0 2.568-1.126 4.845-1.126 1.712 0 3.565.976 4.87 2.66-4.28 2.449-3.586 8.773.741 10.475z"/>
        <path fill="#000" d="M23.089 10.852a5.845 5.845 0 0 0 1.19-4.178c-1.458.18-2.797.936-3.745 2.115-.827 1.038-1.484 2.58-1.24 4.074 1.49-.028 2.887-.768 3.795-2.01zM39.71 15.975l-4.253 12.877h1.946l1.274-3.937h4.117l1.304 3.937h2L41.83 15.958l-2.12.017zm1.01 2.122c.145.578.298 1.173.498 1.82l1.147 3.418h-3.263l1.13-3.44a29 29 0 0 0 .484-1.798h.005zM51.376 19.572c-1.17-.054-2.287.51-2.98 1.506l-.076-1.298h-1.715v.164c.05.81.072 1.7.072 2.976V32.98h1.875v-4.695a3.216 3.216 0 0 0 2.56 1.16 3.77 3.77 0 0 0 2.841-1.27 5.576 5.576 0 0 0 1.261-3.801 5.44 5.44 0 0 0-1.088-3.468c-.683-.853-1.69-1.341-2.75-1.333zm-.466 1.634c1.681 0 2.417 1.63 2.417 3.247 0 2.086-.954 3.38-2.489 3.38-1.049-.003-1.96-.76-2.206-1.834a2.65 2.65 0 0 1-.068-.638v-1.59c.007-.164.027-.327.06-.488 0-.053 0-.106.024-.159.252-1.105 1.18-1.893 2.258-1.918h.004zM61.511 19.572c-1.17-.053-2.287.511-2.98 1.506l-.076-1.298H56.74v.164c.05.81.071 1.7.071 2.976V32.98h1.875v-4.695a3.216 3.216 0 0 0 2.56 1.16 3.775 3.775 0 0 0 2.842-1.27 5.585 5.585 0 0 0 1.261-3.801 5.44 5.44 0 0 0-1.089-3.468c-.683-.853-1.69-1.341-2.749-1.333zm-.467 1.634c1.682 0 2.418 1.63 2.418 3.247 0 2.086-.955 3.38-2.489 3.38-1.049-.003-1.96-.76-2.207-1.835a2.65 2.65 0 0 1-.067-.637v-1.59c.006-.164.026-.327.059-.488l.025-.16c.251-1.108 1.183-1.897 2.266-1.917h-.005zM73.879 21.678c-1.743-.71-2.3-1.27-2.3-2.3 0-.882.657-1.763 2.124-1.763a4.08 4.08 0 0 1 2.191.577l.16.101.507-1.621-.105-.066a5.195 5.195 0 0 0-2.72-.644c-2.384 0-4.047 1.48-4.047 3.596 0 1.706 1.043 2.9 3.28 3.755 1.585.621 2.175 1.26 2.175 2.358 0 1.238-.909 2.01-2.375 2.01a4.926 4.926 0 0 1-2.695-.803l-.163-.11-.503 1.68.092.065a6.154 6.154 0 0 0 3.16.855c3.21 0 4.349-2.058 4.349-3.82 0-1.763-.893-2.94-3.13-3.87zM80.778 17.505l-1.885.617v1.63h-1.377v1.567h1.377v4.81c0 1.163.215 1.977.663 2.493a2.432 2.432 0 0 0 1.855.744 4.425 4.425 0 0 0 1.485-.233l.108-.04-.09-1.572-.186.057a2.83 2.83 0 0 1-.89.106c-.745 0-1.064-.48-1.064-1.612V21.31h2.316v-1.567h-2.316l.004-2.238zM87.725 19.57c-2.729 0-4.635 2.045-4.635 4.97 0 2.835 1.845 4.828 4.482 4.828 2.23 0 4.636-1.563 4.636-4.987a4.96 4.96 0 0 0-1.242-3.464 4.33 4.33 0 0 0-3.24-1.347zm-.057 1.545c1.75 0 2.554 1.716 2.554 3.314 0 1.963-1.089 3.385-2.589 3.385-1.478 0-2.554-1.4-2.554-3.328-.017-1.677.792-3.371 2.594-3.371h-.005zM97.785 19.663l-.111-.032a1.623 1.623 0 0 0-.456-.063c-.982.023-1.87.646-2.297 1.612l-.053-1.4h-1.644v.165c.05.795.07 1.684.07 2.883v6.54h1.808v-5.1c-.002-.26.015-.519.05-.776.205-1.226.96-2.016 1.926-2.016.165.001.33.012.493.032h.197l.017-1.845zM102.104 19.568c-2.545 0-4.32 2.083-4.32 5.066 0 2.874 1.766 4.732 4.504 4.732a7.168 7.168 0 0 0 3.025-.593l.115-.053-.368-1.458-.159.066a5.787 5.787 0 0 1-2.395.439c-.83 0-2.742-.281-2.862-2.838h6.166l.025-.123c.044-.27.063-.544.056-.818.004-2.034-.99-4.42-3.787-4.42zm-.129 1.49a1.86 1.86 0 0 1 1.401.549c.426.507.66 1.154.66 1.823h-4.357c.18-1.133.87-2.372 2.296-2.372zM35.457 7.316a14.129 14.129 0 0 1 1.868-.127c1.252 0 2.146.254 2.74.753a2.673 2.673 0 0 1 .963 2.188 3.095 3.095 0 0 1-.973 2.372c-.64.57-1.683.876-3 .876a13.48 13.48 0 0 1-1.598-.075V7.316zm.873 5.405c.29.032.581.044.872.035 1.868 0 2.88-.94 2.88-2.59 0-1.458-.873-2.355-2.74-2.355a5.527 5.527 0 0 0-1.025.083l.013 4.827zM43.77 13.361a2.028 2.028 0 0 1-1.593-.617 2.282 2.282 0 0 1-.638-1.663 2.357 2.357 0 0 1 .67-1.71 2.096 2.096 0 0 1 1.645-.628 2.027 2.027 0 0 1 1.599.608 2.28 2.28 0 0 1 .645 1.663c0 1.648-1.202 2.365-2.31 2.365l-.018-.018zm.03-.606c.808 0 1.415-.722 1.415-1.732 0-.753-.394-1.696-1.394-1.696-1 0-1.424.886-1.424 1.723 0 .97.578 1.705 1.394 1.705h.009zM47.49 8.737l.656 2.349c.132.519.264 1.005.352 1.487h.03c.11-.464.273-.968.44-1.478l.802-2.358h.748l.757 2.316c.18.547.325 1.047.44 1.515h.03c.096-.51.221-1.012.375-1.506l.7-2.316h.88l-1.58 4.633h-.81l-.748-2.215a15.834 15.834 0 0 1-.44-1.533 13.282 13.282 0 0 1-.44 1.543l-.788 2.205h-.81l-1.479-4.633.885-.01zM54.751 10.051c0-.479 0-.85-.038-1.225h.759l.047.742c.354-.554.954-.868 1.581-.828.653 0 1.667.375 1.667 1.926v2.713h-.848V10.77c0-.728-.284-1.356-1.094-1.356-.51-.002-.968.333-1.15.84a1.18 1.18 0 0 0-.059.385v2.713h-.848l-.017-3.3zM59.78 6.674h1.014v6.19H59.78zM64.041 13.374a2.032 2.032 0 0 1-1.595-.616 2.277 2.277 0 0 1-.638-1.662c0-1.482 1.031-2.353 2.313-2.353a2.03 2.03 0 0 1 1.6.608c.428.432.663 1.036.646 1.66 0 1.646-1.203 2.363-2.313 2.363h-.013zm.03-.606c.808 0 1.416-.721 1.416-1.73 0-.752-.394-1.694-1.395-1.694-1.002 0-1.425.885-1.425 1.72 0 .97.578 1.704 1.395 1.704h.009zM71.362 12.208c-.005.357.02.714.073 1.067h-.832l-.082-.56h-.032a1.98 1.98 0 0 1-1.554.663c-1.028 0-1.554-.636-1.554-1.282 0-1.076 1.092-1.668 3.058-1.655v-.093c0-.37-.115-1.041-1.157-1.032a2.708 2.708 0 0 0-1.334.33l-.21-.544a3.665 3.665 0 0 1 1.672-.364c1.568 0 1.943.93 1.943 1.824l.009 1.646zm-.914-1.206c-1.01 0-2.153.138-2.153 1.005a.742.742 0 0 0 .249.581c.166.149.39.22.615.194a1.288 1.288 0 0 0 1.252-.748.725.725 0 0 0 .041-.258l-.004-.774zM76.463 6.674V12.1c0 .398 0 .85.04 1.16h-.793l-.04-.78a1.798 1.798 0 0 1-1.64.896 2.054 2.054 0 0 1-1.522-.675 2.179 2.179 0 0 1-.56-1.605 2.28 2.28 0 0 1 .576-1.695 2.149 2.149 0 0 1 1.601-.716 1.648 1.648 0 0 1 1.463.677V6.674h.875zm-.87 3.92c.002-.12-.012-.238-.04-.354a1.275 1.275 0 0 0-1.271-.936c-.91 0-1.45.743-1.45 1.725 0 .98.474 1.689 1.397 1.689a1.31 1.31 0 0 0 1.307-.972c.029-.116.042-.235.039-.354l.017-.798zM82.284 13.374a2.032 2.032 0 0 1-1.595-.616 2.277 2.277 0 0 1-.639-1.662c-.019-.646.222-1.27.662-1.718a2.1 2.1 0 0 1 1.651-.635 2.03 2.03 0 0 1 1.6.608c.428.432.663 1.036.646 1.66 0 1.646-1.202 2.363-2.313 2.363h-.012zm.029-.606c.809 0 1.416-.721 1.416-1.73 0-.752-.394-1.694-1.395-1.694s-1.425.885-1.425 1.72c0 .97.579 1.704 1.396 1.704h.008zM85.662 10.064c0-.48 0-.85-.039-1.226h.763l.05.742c.35-.552.943-.87 1.568-.841.655 0 1.673.375 1.673 1.926v2.714h-.852v-2.61c0-.728-.285-1.356-1.098-1.356-.512-.002-.972.333-1.154.84a1.18 1.18 0 0 0-.06.385v2.714h-.851v-3.288zM94.404 7.705V8.78h1.354V9.4h-1.336v2.424c0 .555.18.872.7.872.181.007.363-.011.54-.053l.04.621a2.879 2.879 0 0 1-.824.112 1.436 1.436 0 0 1-1.009-.344 1.596 1.596 0 0 1-.36-1.177V9.414h-.792v-.622h.793v-.84l.894-.247zM96.273 6.674h.86v2.845c.15-.254.367-.456.623-.583.273-.157.58-.239.89-.237.64 0 1.672.378 1.672 1.949v2.73h-.86v-2.617c0-.746-.287-1.365-1.108-1.365-.512-.002-.974.326-1.165.828a.959.959 0 0 0-.06.396v2.732h-.86l.008-6.678zM102.65 11.196c0 1.095.73 1.55 1.564 1.55.432.011.863-.064 1.27-.223l.152.57a3.85 3.85 0 0 1-1.538.285c-1.402 0-2.255-.89-2.255-2.227a2.379 2.379 0 0 1 .587-1.722c.41-.459.982-.71 1.573-.691 1.497 0 1.889 1.282 1.889 2.102.003.13-.007.26-.029.387l-3.212-.031zm2.438-.579a1.26 1.26 0 0 0-.288-.953 1.07 1.07 0 0 0-.858-.383c-.686.011-1.246.596-1.279 1.336h2.425z"/>
    </g>
</svg>
