<svg xmlns="http://www.w3.org/2000/svg" width="32" height="32" fill="none" xmlns:v="https://vecta.io/nano"><path fill-rule="evenodd" d="M16 32c8.837 0 16-7.163 16-16S24.837 0 16 0 0 7.163 0 16s7.163 16 16 16z" fill="#0a66c2"/><path d="M23.197 23.199h0 .004v-5.281c0-2.584-.556-4.574-3.577-4.574-1.452 0-2.426.797-2.824 1.552h-.042v-1.311h-2.864v9.614h2.982v-4.76c0-1.253.238-2.466 1.79-2.466 1.529 0 1.552 1.431 1.552 2.546V23.2h2.979zM9.038 13.586h2.986V23.2H9.038v-9.614zm1.491-4.785A1.73 1.73 0 0 0 8.8 10.53c0 .955.775 1.745 1.729 1.745s1.729-.791 1.729-1.745a1.73 1.73 0 0 0-1.729-1.729z" fill="#fff"/></svg>